<svg t="1574880563968" class="icon" viewBox="0 0 1024 1024" version="1.1" xmlns="http://www.w3.org/2000/svg" p-id="18519" width="24" height="24"><path d="M522.10688 20.31616c-212.00896 0-384.49152 170.38336-384.49152 379.81184 0 203.75552 352.64 585.71264 367.65184 601.86624l16.83968 18.1248 16.83456-18.1248c15.01696-16.1536 367.64672-398.11072 367.64672-601.86624-0.00512-209.42848-172.47744-379.81184-384.48128-379.81184z m-0.00512 931.78368c-70.56384-79.0016-338.51904-389.72928-338.51904-551.97184 0-184.07936 151.86432-333.84448 338.52416-333.84448 186.65472 0 338.51392 149.76512 338.51392 333.84448 0 162.16064-267.9552 472.94976-338.51904 551.97184z" fill="#ed4617" p-id="18520"></path><path d="M522.10688 208.92672c-108.01152 0-195.88096 87.86944-195.88096 195.87584s87.86944 195.87584 195.88096 195.87584c108.00128 0 195.87072-87.86944 195.87072-195.87584s-87.87456-195.87584-195.87072-195.87584z m0 345.78944c-82.66752 0-149.9136-67.24608-149.9136-149.9136 0-82.6624 67.2512-149.9136 149.9136-149.9136 82.65728 0 149.90336 67.2512 149.90336 149.9136 0 82.6624-67.2512 149.9136-149.90336 149.9136z" fill="#ed4617" p-id="18521"></path></svg>