<svg t="1574881004209" class="icon" viewBox="0 0 1024 1024" version="1.1" xmlns="http://www.w3.org/2000/svg" p-id="19987" width="24" height="24"><path d="M37.236364 1024c-11.170909 0-18.618182-7.447273-18.618182-18.618182 0-1.861818 0-5.585455 1.861818-7.447273 31.650909-72.610909 74.472727-178.734545 89.367273-212.247272C44.683636 714.938182 0 586.472727 0 474.763636 0 208.523636 225.28 0 512 0S1022.138182 208.523636 1024 474.763636c3.723636 117.294545-40.96 229.003636-122.88 312.785455-91.229091 93.090909-227.141818 143.36-379.810909 143.36-53.992727 0-161.978182-3.723636-204.8-18.618182-29.789091 9.309091-178.734545 70.749091-271.825455 109.847273-1.861818 0-5.585455 1.861818-7.447272 1.861818zM512 37.236364C245.76 37.236364 37.236364 229.003636 37.236364 474.763636 37.236364 580.887273 83.781818 707.490909 143.36 768.930909c9.309091 9.309091 9.309091 9.309091-42.821818 132.189091l-29.789091 70.749091c240.174545-98.676364 242.036364-98.676364 251.345454-94.952727 24.203636 9.309091 111.709091 16.756364 199.214546 16.756363 143.36 0 268.101818-46.545455 353.745454-132.189091 74.472727-76.334545 115.432727-178.734545 111.709091-286.72C984.901818 225.28 781.963636 37.236364 512 37.236364z" fill="" p-id="19988"></path><path d="M297.890909 428.218182c-31.650909 0-55.854545 24.203636-55.854545 55.854545s24.203636 55.854545 55.854545 55.854546 55.854545-24.203636 55.854546-55.854546-24.203636-55.854545-55.854546-55.854545z m223.418182 0c-31.650909 0-55.854545 24.203636-55.854546 55.854545s24.203636 55.854545 55.854546 55.854546 55.854545-24.203636 55.854545-55.854546-24.203636-55.854545-55.854545-55.854545z m223.418182 0c-31.650909 0-55.854545 24.203636-55.854546 55.854545s24.203636 55.854545 55.854546 55.854546 55.854545-24.203636 55.854545-55.854546-24.203636-55.854545-55.854545-55.854545z" fill="" p-id="19989"></path></svg>