<svg t="1574881071868" class="icon" viewBox="0 0 1024 1024" version="1.1" xmlns="http://www.w3.org/2000/svg" p-id="21141" width="24" height="24"><path d="M855.893333 855.893333v136.260267c0 19.114667-12.2368 31.8464-30.583466 31.8464-18.3296 0-30.549333-12.731733-30.549334-31.8464V855.893333h-121.002666c-19.114667 0-31.8464-12.219733-31.8464-30.549333 0-18.346667 12.731733-30.583467 31.8464-30.583467h121.002666v-121.002666c0-19.0976 12.219733-31.829333 30.549334-31.829334 18.346667 0 30.5664 12.731733 30.5664 31.8464v121.002667h136.277333c19.114667 0 31.8464 12.219733 31.8464 30.549333 0 18.346667-12.731733 30.5664-31.8464 30.5664H855.893333zM512 1024C230.4 1024 0 793.6 0 512S230.4 0 512 0s512 230.4 512 512c0 19.2-12.8 32-32 32S960 531.2 960 512C960 262.4 761.6 64 512 64S64 262.4 64 512 262.4 960 512 960c19.2 0 32 12.8 32 32S531.2 1024 512 1024z m7.645867-213.9648c-6.4512 0-19.3536-6.434133-25.8048-12.868267L255.214933 507.562667c-12.885333-6.434133-12.885333-25.736533-6.434133-32.187734l70.929067-135.133866c6.4512-12.868267 12.9024-19.3024 25.8048-19.3024H693.76c12.885333 0 25.787733 6.434133 25.787733 19.3024l70.946134 135.133866c6.4512 12.885333 6.4512 25.7536-6.4512 32.187734l-245.077334 289.5872c0 6.434133-12.885333 12.868267-19.336533 12.868266z m-206.3872-328.192L519.645867 726.357333 726.016 481.8432l-51.592533-96.529067H364.868267l-51.6096 96.529067z" p-id="21142"></path></svg>