<svg t="1574881254166" class="icon" viewBox="0 0 1272 1024" version="1.1" xmlns="http://www.w3.org/2000/svg" p-id="22792" width="24" height="24"><path d="M524.189882 1007.780096a122.023589 122.023589 0 0 1-122.011112-120.850766V585.950288a47.100107 47.100107 0 1 1 94.200214 0V887.104006c0 13.936641 13.038308 25.26562 29.046106 25.265621h66.85096v-144.980993A104.194171 104.194171 0 0 1 696.208207 656.656594c1.859051 0 3.743055 0 5.602106 0.149722h128.424213c1.82162-0.099815 3.743055-0.149722 5.527244-0.149722a104.194171 104.194171 0 0 1 103.969588 110.73204v144.968516h66.838483c16.020275 0 29.058583-11.328979 29.058583-25.265621V585.950288a47.100107 47.100107 0 0 1 94.200214 0V887.104006a122.036066 122.036066 0 0 1-121.998635 120.688566h-115.435813a47.599181 47.599181 0 0 1-33.413003-14.09884 47.08763 47.08763 0 0 1-13.62472-33.687494V751.992202H686.226728V959.844039a47.412028 47.412028 0 0 1-47.125061 47.936057z m684.679598-520.134906A46.738279 46.738279 0 0 1 1180.309972 477.86334l-1.509699-1.247685-412.983722-348.877669-412.983721 348.865192a46.700848 46.700848 0 0 1-30.206453 11.116873c-1.372453 0-2.769861 0-4.142314-0.187153a46.875524 46.875524 0 0 1-31.84092-16.806316 48.135686 48.135686 0 0 1 5.914026-67.137928l443.09036-374.055951a46.463788 46.463788 0 0 1 60.250707 0l443.115313 373.98109a48.098255 48.098255 0 0 1 5.864119 67.08802 46.863047 46.863047 0 0 1-31.865873 16.868701c-1.359977 0.112292-2.757384 0.174676-4.142315 0.174676z" p-id="22793" fill="#333333"></path></svg>