<?xml version="1.0" encoding="utf-8"?>
<svg version="1.1" xmlns:xlink="http://www.w3.org/1999/xlink" width="12px" height="12px" viewBox="20 308.5  12 12" xmlns="http://www.w3.org/2000/svg">
  <path d="M 26 308.5  C 29.36 308.5  32 311.14  32 314.5  C 32 317.86  29.36 320.5  26 320.5  C 22.64 320.5  20 317.86  20 314.5  C 20 311.14  22.64 308.5  26 308.5  Z " fill-rule="nonzero" fill="#02a7f0" stroke="none" fill-opacity="0" />
  <path d="M 26 309  C 29.08 309  31.5 311.42  31.5 314.5  C 31.5 317.58  29.08 320  26 320  C 22.92 320  20.5 317.58  20.5 314.5  C 20.5 311.42  22.92 309  26 309  Z " stroke-width="1" stroke="#02a7f0" fill="none" />
  <path d="M 26 317.5  C 24.32 317.5  23 316.18  23 314.5  C 23 312.82  24.32 311.5  26 311.5  C 27.68 311.5  29 312.82  29 314.5  C 29 316.18  27.68 317.5  26 317.5  " fill-rule="nonzero" fill="#02a7f0" stroke="none" />
</svg>