<svg t="1574874726207" class="icon" viewBox="0 0 1040 1024" version="1.1" xmlns="http://www.w3.org/2000/svg" p-id="11097" width="24" height="24"><path d="M646.77761 0v164.2118a918.914776 918.914776 0 0 1-1.290974 153.10943c-4.389309 32.532526-77.458396 10.844175-101.470499 17.299042s-12.909733 49.831568-12.909733 66.872416v103.277862c8.520424-19.364599 36.663641-12.909733 53.962683-12.909733a425.246596 425.246596 0 0 0 90.626324 0 23.495714 23.495714 0 0 0 17.299042-23.753908 240.895613 240.895613 0 0 1 0-41.05295V131.679274a417.242562 417.242562 0 0 1 239.604639 375.673222 415.951589 415.951589 0 0 1-356.308623 408.205749v-213.785174c0-4.389309-2.065557-10.844175 0-15.233485 2.065557-8.520424-2.065557-4.131114 6.454866-8.520423 12.909733-4.389309 125.224407 14.97529 110.249118-23.753908-6.454866-8.778618 0-38.987393 0-51.638931v-108.183561c2.065557 28.143217-34.598084 21.688351-51.638931 21.688351a596.171457 596.171457 0 0 0-88.560767 0c-28.143217 0-21.430156 36.663641-21.430156 56.028241v103.277861c-4.389309 0-13.167927 2.323752-17.299042 0s-6.454866 0-6.454866-10.58598v-81.847706a396.586989 396.586989 0 0 0 0-49.573374c-4.389309-25.819465-45.442259-17.299042-62.741301-17.299042a385.226425 385.226425 0 0 1-86.237015 0c-6.713061 0-10.844175-8.778618-10.844175-17.299041V619.667171a266.715078 266.715078 0 0 0 0 43.118507c4.131114 23.753908 36.663641 17.299042 53.962683 17.299042h53.962682c10.844175 0 8.520424 10.844175 8.520424 21.688351v215.850731A419.566314 419.566314 0 0 1 104.82703 507.352496 419.049924 419.049924 0 0 1 346.755421 131.679274v339.009581a21.946546 21.946546 0 0 0 21.430156 23.753908h69.196168c19.364599 0 60.417549-8.520424 71.261724 12.909733v-118.769541c0-25.819465 6.454866-51.638931-25.819465-53.962683a470.430661 470.430661 0 0 0-53.962683 0c-34.598084 0-34.598084-17.299042-34.598083-49.573373V2.065557A520.262229 520.262229 0 0 0 1.290973 539.885023a524.393343 524.393343 0 0 0 589.458397 479.209279 526.717095 526.717095 0 0 0 449.000504-546.339889A524.393343 524.393343 0 0 0 646.77761 0z" fill="#348B7C" p-id="11098"></path></svg>