<svg t="1574874755012" class="icon" viewBox="0 0 1024 1024" version="1.1" xmlns="http://www.w3.org/2000/svg" p-id="11942" width="24" height="24"><path d="M512 512m-512 0a512 512 0 1 0 1024 0 512 512 0 1 0-1024 0Z" fill="#FFFFFF" p-id="11943"></path><path d="M482.304 121.856s71.68-55.296 193.536-15.36c0 0 40.96 15.36 89.088 57.344L911.36 319.488l-78.848 78.848-225.28-228.352c1.024 0-36.864-46.08-124.928-48.128z m324.608 304.128l-92.16 90.112s-15.36 21.504-27.648 1.024L517.12 351.232s-15.36-20.48-26.624-2.048l-171.008 174.08s-11.264 17.408 2.048 24.576l166.912 166.912s13.312 22.528 26.624 5.12l174.08-175.104s5.12-15.36 32.768-11.264h177.152s7.168 180.224-130.048 291.84c0 0-178.176 178.176-423.936 68.608 0 0-236.544-82.944-233.472-388.096 0 0 6.144-204.8 192.512-313.344 0 0 136.192-101.376 244.736-26.624l258.048 260.096z" fill="#003990" p-id="11944"></path></svg>