<svg t="1574845013911" class="icon" viewBox="0 0 1024 1024" version="1.1" xmlns="http://www.w3.org/2000/svg" p-id="1470" width="200" height="200"><path d="M386.80486956 596.96973919a195.89565217 195.89565217 0 0 1-117.5373913-35.6173913 148.16834783 148.16834783 0 0 1-60.90573913-136.94886957 144.96278261 144.96278261 0 0 1 94.38608695-116.64695652 284.93913044 284.93913044 0 0 0 57.52208696-30.63095652 24.04173913 24.04173913 0 1 1 27.78156522 39.17913043 331.06365217 331.06365217 0 0 1-67.13878261 35.61739131 98.304 98.304 0 0 0-64.82365217 78.35826087 100.08486957 100.08486957 0 0 0 41.67234782 92.07095652c50.3986087 36.864 131.96243478 34.01460869 223.85530435-8.192 160.27826087-73.54991304 204.08765217-235.43095652 163.48382609-350.47513044-22.08278261-62.50852174-61.26191304-86.55026087-90.46817392-95.63269565a106.85217391 106.85217391 0 0 0-89.04347825 9.26052174c-39.00104348 27.95965218-32.41182608 81.02956521-32.05565218 83.1666087a106.85217391 106.85217391 0 0 1 0 24.21982609 24.04173913 24.04173913 0 1 1-47.72730435-5.16452175 66.07026087 66.07026087 0 0 0 0-12.82226087c0-2.67130435-11.39756522-83.16660869 51.64521739-128.40069564a154.75756521 154.75756521 0 0 1 132.3186087-16.02782609 191.79965217 191.79965217 0 0 1 121.45530434 124.66086956c47.54921739 134.98991304-2.49321739 324.65252174-188.7721739 409.6a373.9826087 373.9826087 0 0 1-155.64800001 40.42573913z" fill="#D9001B" p-id="1471"></path><path d="M415.83304348 282.29008702a24.04173913 24.04173913 0 0 1-18.69913044-39.17913044 141.40104347 141.40104347 0 0 0 12.46608695-18.87721739 24.04173913 24.04173913 0 0 1 41.85043479 23.68556521 189.6626087 189.6626087 0 0 1-17.80869566 25.28834783 24.04173913 24.04173913 0 0 1-17.80869564 9.08243479zM633.27721739 267.68695658h-3.20556522a24.04173913 24.04173913 0 0 1-20.65808696-27.06921739c0-5.52069566 1.2466087-11.0413913 1.78086957-16.56208696s0-11.39756522 0-17.80869565a24.04173913 24.04173913 0 0 1 24.04173913-24.04173913 24.04173913 24.04173913 0 0 1 24.04173913 24.04173913v20.30191304q0 10.15095652-1.95895652 19.58956523A24.04173913 24.04173913 0 0 1 633.27721739 267.68695658zM503.45182609 476.58295658a24.04173913 24.04173913 0 0 1-13.5346087-43.80939131 283.15826087 283.15826087 0 0 0 100.44104348-122.16765217 24.04173913 24.04173913 0 0 1 44.16556521 18.8772174 331.24173913 331.24173913 0 0 1-117.35930434 142.46956521 23.86365217 23.86365217 0 0 1-13.71269565 4.63026087zM906.10643478 396.44382614h-109.3453913a17.80869566 17.80869566 0 1 1 0-33.83652173h109.3453913a17.80869566 17.80869566 0 0 1 0 33.83652173zM106.85217391 396.44382614H75.50886957a17.80869566 17.80869566 0 0 1 0-33.83652173H106.85217391a17.80869566 17.80869566 0 0 1 0 33.83652173zM151.37391304 542.8313044h-124.66086957a17.80869566 17.80869566 0 1 1 0-33.83652173h124.66086957a17.80869566 17.80869566 0 1 1 0 33.83652173zM810.29565217 542.8313044h-106.85217392a17.80869566 17.80869566 0 0 1 0-33.83652173h106.85217392a17.80869566 17.80869566 0 0 1 0 33.83652173zM1006.19130435 542.8313044h-124.66086957a17.80869566 17.80869566 0 0 1 0-33.83652173h124.66086957a17.80869566 17.80869566 0 0 1 0 33.83652173zM881.53043478 667.49217397H552.06956522a17.80869566 17.80869566 0 0 1 0-33.83652174h329.46086956a17.80869566 17.80869566 0 0 1 0 33.83652174zM373.98260869 667.49217397H133.56521739a17.80869566 17.80869566 0 1 1 0-33.83652174H373.98260869a17.80869566 17.80869566 0 1 1 0 33.83652174z" fill="#D9001B" p-id="1472"></path><path d="M463.03600417 641.71779123m-4.19663694 17.30716271a17.80869566 17.80869566 0 1 0 8.39327388-34.61432543 17.80869566 17.80869566 0 1 0-8.39327388 34.61432543Z" fill="#D9001B" p-id="1473"></path></svg>