<svg t="1574846819822" class="icon" viewBox="0 0 1024 1024" version="1.1" xmlns="http://www.w3.org/2000/svg" p-id="7601" width="200" height="200"><path d="M806.09375 168.875H680.09375c-5.90625-25.78125-29.71875-45.65625-57.5625-45.65625h-62.4375c-7.96875-19.875-26.8125-32.71875-48.5625-32.71875-21.84375 0-40.6875 12.9375-48.5625 32.71875H399.5c-27.75 0-51.5625 19.875-57.5625 45.65625H215.9375c-32.71875 0-57.5625 26.8125-57.5625 59.53125v640.6875c0 32.71875 25.78125 59.53125 57.5625 59.53125h589.125c32.71875 0 60.46875-26.8125 60.46875-59.53125V228.40625c1.03125-32.71875-26.71875-59.53125-59.4375-59.53125z m-293.625 28.78125c26.8125 0 47.625 21.84375 47.625 47.625 0 26.8125-21.84375 47.625-47.625 47.625-26.8125 0-47.625-21.84375-47.625-47.625s20.90625-47.625 47.625-47.625z m181.5 492.9375c0 11.90625-9.9375 21.84375-21.84375 21.84375H352.8125c-11.90625 0-21.84375-9.9375-21.84375-21.84375v-19.875c0-11.90625 9.9375-21.84375 21.84375-21.84375h319.3125c11.90625 0 21.84375 9.9375 21.84375 21.84375v19.875z m0-201.375c0 11.90625-9.9375 21.84375-21.84375 21.84375H352.8125c-11.90625 0-21.84375-9.9375-21.84375-21.84375v-19.875c0-11.90625 9.9375-21.84375 21.84375-21.84375h319.3125c11.90625 0 21.84375 9.9375 21.84375 21.84375v19.875z" fill="#333333" p-id="7602"></path></svg>