<svg t="1574871517644" class="icon" viewBox="0 0 1024 1024" version="1.1" xmlns="http://www.w3.org/2000/svg" p-id="8942" width="24" height="24"><path d="M837.665 907.483H139.516c-12.853 0-23.272-10.42-23.272-23.273V186.062c0-12.853 10.42-23.272 23.272-23.272h442.157c12.853 0 23.273 10.42 23.273 23.272s-10.42 23.273-23.273 23.273H162.79V860.94h651.605V442.043c0-12.852 10.42-23.272 23.272-23.272s23.273 10.419 23.273 23.272v442.168c-0.001 12.853-10.42 23.272-23.274 23.272z" p-id="8943" fill="#D9001B"></path><path d="M395.758 651.809a23.204 23.204 0 0 1-16.456-6.815c-9.087-9.09-9.087-23.825 0-32.913l488.746-488.746c9.09-9.089 23.825-9.089 32.912 0 9.089 9.087 9.089 23.823 0.001 32.912L412.214 644.994a23.202 23.202 0 0 1-16.456 6.815z" p-id="8944" fill="#D9001B"></path></svg>