<svg t="1574778232828" class="icon" viewBox="0 0 1024 1024" version="1.1" xmlns="http://www.w3.org/2000/svg" p-id="4734" width="24" height="24"><path d="M897.170286 250.148571c0-40.374857-32.768-73.142857-73.142857-73.142857H198.070857c-40.374857 0-73.142857 32.768-73.142857 73.142857V690.614857c0 40.374857 32.768 73.142857 73.142857 73.142857h412.525714c16.091429 0 29.257143-13.165714 29.257143-29.257143s-13.165714-29.257143-29.257143-29.257142h-412.525714c-8.045714 0-14.628571-6.582857-14.628571-14.628572V446.317714l655.213714-0.292571c32.329143 0 58.514286-26.185143 58.514286-58.514286v-137.362286z m-699.099429-14.628571h625.956572c8.045714 0 14.628571 6.582857 14.628571 14.628571V311.734857H183.442286v-61.586286c0-8.045714 6.582857-14.628571 14.628571-14.628571z" fill="#333333" p-id="4735"></path><path d="M785.261714 461.531429c-83.382857 0-151.113143 67.730286-151.113143 151.113142S701.878857 763.757714 785.261714 763.757714s151.113143-67.730286 151.113143-151.113143c0-83.236571-67.876571-151.113143-151.113143-151.113142zM781.750857 680.374857l-8.484571 8.630857c-10.386286 10.825143-24.283429 16.384-38.180572 16.384-13.019429 0-26.038857-4.681143-36.132571-14.336-10.24-9.654857-16.091429-22.674286-16.530286-36.717714-0.438857-14.043429 4.681143-27.501714 14.336-37.741714 1.024-1.170286 2.194286-2.340571 3.364572-3.364572l34.084571-32.914285c20.918857-20.187429 54.272-19.456 74.459429 1.316571 2.486857 2.633143 4.827429 5.558857 6.729142 8.630857 4.827429 7.753143 2.486857 17.846857-5.266285 22.674286-3.657143 2.340571-8.192 3.072-12.434286 2.048-4.242286-1.024-7.899429-3.657143-10.24-7.314286-0.731429-1.170286-1.609143-2.194286-2.486857-3.218286-7.606857-7.899429-20.187429-8.045714-27.940572-0.585142L722.651429 637.074286c-8.045714 7.314286-8.630857 19.894857-1.316572 27.940571 3.510857 3.949714 8.484571 6.144 13.750857 6.436572 5.266286 0.292571 10.386286-1.609143 14.189715-5.12l0.877714-0.877715 0.146286-0.146285 7.021714-6.729143c3.218286-3.072 7.314286-4.681143 11.702857-4.534857 4.388571 0.146286 8.484571 1.901714 11.556571 5.12 0.292571 0.292571 0.585143 0.585143 0.877715 1.024 4.534857 5.558857 4.827429 14.482286 0.292571 20.187428z m91.721143-71.241143l-0.292571 0.292572-34.084572 32.914285c-10.24 9.801143-23.405714 14.628571-36.571428 14.628572-13.750857 0-27.501714-5.412571-37.888-16.091429-2.633143-2.779429-4.973714-5.851429-7.021715-9.069714l-0.146285-0.146286c-4.534857-7.899429-1.755429-17.846857 6.144-22.381714 7.460571-4.242286 17.115429-2.048 21.796571 5.12l0.146286 0.146286c0.731429 1.316571 1.755429 2.486857 2.779428 3.510857 7.606857 7.899429 20.187429 8.045714 28.086857 0.585143l34.230858-33.060572c3.803429-3.657143 5.997714-8.630857 5.997714-13.897143 0.146286-5.266286-1.901714-10.24-5.558857-14.043428-3.657143-3.803429-8.630857-5.997714-13.897143-5.997714-5.266286-0.146286-10.386286 1.901714-14.043429 5.558857l-7.168 6.875428c-6.582857 6.290286-16.969143 5.997714-23.259428-0.585143-3.072-3.218286-4.681143-7.314286-4.534857-11.702857 0.146286-4.388571 1.901714-8.484571 5.12-11.556571l7.168-6.875429c10.532571-9.362286 23.990857-14.043429 38.034285-13.312 14.043429 0.731429 26.916571 7.021714 36.278857 17.554286 18.285714 20.48 17.700571 51.785143-1.316571 71.533714z" fill="#333333" p-id="4736"></path></svg>