<svg t="1574778303696" class="icon" viewBox="0 0 1024 1024" version="1.1" xmlns="http://www.w3.org/2000/svg" p-id="5805" width="24" height="24"><path d="M811.290117 661.20404v-48.484848h27.410101c29.349495 0 57.793939 23.40202 66.19798 54.561616l70.593939 257.680808c4.525253 16.808081 1.680808 33.09899-8.016161 45.89899-10.343434 13.575758-27.280808 21.333333-46.416162 21.333333H102.894158c-19.006061 0-35.943434-7.757576-46.286869-21.462626-9.826263-12.8-12.670707-29.090909-8.016162-45.89899L118.926481 667.280808c8.533333-31.030303 36.977778-54.561616 66.19798-54.561616h27.410101v48.484848H185.124461c-7.369697 0-16.808081 9.179798-19.39394 18.876768L95.524461 936.339394c-0.775758 1.163636-1.034343 2.585859-0.775758 4.008081l0.905051 4.137373 4.266666 0.129293c1.034343 0 1.939394-0.258586 2.715152-0.775757h818.294949c0.905051 0.517172 1.810101 0.905051 2.844445 0.90505 2.456566 0 4.654545-1.810101 5.171717-4.137373 0.258586-1.292929 0-2.844444-0.905051-4.137374L858.094158 680.080808c-2.585859-9.438384-12.282828-18.747475-19.39394-18.747475" p-id="5806"></path><path d="M511.330521 879.967677c-17.454545 0-33.228283-7.757576-43.183838-21.333334-46.028283-63.094949-90.375758-128.775758-131.878788-194.973737l-2.715152-4.39596c-10.989899-17.583838-35.167677-55.59596-51.329292-80.80808-7.49899-11.765657-13.446465-20.945455-14.480809-22.755556C245.504259 520.274747 232.187087 496.355556 221.972945 473.212121c-19.264646-43.442424-27.79798-84.945455-28.444444-138.989899-0.775758-75.377778 29.090909-147.652525 84.169697-203.377778C337.948703 69.818182 423.411329 34.909091 511.847693 34.909091c84.557576 0 163.943434 31.030303 223.935353 87.272727C795.645673 178.424242 829.261834 253.414141 830.425471 333.575758c0.646465 48.614141-6.723232 88.565657-23.789899 129.680808-10.214141 24.694949-23.919192 49.907071-47.191919 87.272727-2.715152 4.39596-11.894949 18.747475-22.49697 35.426263-16.420202 25.858586-36.977778 57.923232-46.416162 73.179798l-2.715151 4.525252c-37.882828 60.638384-78.351515 120.888889-120.242425 178.941414l-11.765656 16.290909c-9.826263 12.929293-26.892929 21.074747-44.476768 21.074748z m-15.644444-65.810101c3.878788 5.688889 8.145455 11.248485 12.8 16.420202l4.266666 4.654545 3.749495-5.171717c45.381818-62.189899 89.082828-126.836364 129.939394-192.129293l2.715152-4.395959c9.567677-15.385859 29.737374-47.191919 46.028283-72.79192 11.248485-17.713131 20.169697-31.676768 22.884848-36.072727 21.591919-34.650505 34.262626-57.923232 43.571717-80.161616 14.739394-35.29697 20.816162-68.266667 20.169697-110.157576-2.068687-136.791919-120.371717-248.242424-264.791919-250.957576h-5.171717c-75.636364 0-148.428283 29.737374-199.757576 81.583839-46.028283 46.545455-70.981818 106.408081-70.20606 168.856565 0.517172 46.933333 7.757576 82.747475 24.177777 119.854546 9.179798 20.686869 21.462626 42.79596 42.537374 76.282828 0.646465 1.034343 3.10303 4.913131 6.723232 10.472727 13.834343 21.591919 46.157576 72.016162 59.216162 93.220202l2.585859 4.266667c37.624242 59.733333 77.446465 119.078788 118.561616 176.226263z" p-id="5807"></path><path d="M222.877996 623.062626l28.573737 38.012121-28.573737 0.129293v-38.141414z m549.494949 38.012121l28.573738-38.012121v38.141414l-28.573738-0.129293zM511.976986 461.575758c-59.733333 0-108.347475-48.614141-108.347475-108.347475s48.614141-108.347475 108.347475-108.347475c59.733333 0 108.347475 48.614141 108.347475 108.347475S571.581026 461.575758 511.976986 461.575758z m0-168.080809c-32.969697 0-59.862626 26.892929-59.862626 59.862627s26.892929 59.862626 59.862626 59.862626c32.969697 0 59.862626-26.892929 59.862626-59.862626S544.946683 293.494949 511.976986 293.494949z" p-id="5808"></path></svg>