<svg t="1574778179939" class="icon" viewBox="0 0 1024 1024" version="1.1" xmlns="http://www.w3.org/2000/svg" p-id="3467" width="24" height="24"><path d="M709.6 432a16 16 0 0 1 0-32 122.4 122.4 0 0 0 23.52-242.72 16 16 0 0 1 6.08-32A154.4 154.4 0 0 1 709.6 432z" p-id="3468"></path><path d="M965.92 732h-73.44a16 16 0 1 1 0-32h59.36A243.36 243.36 0 0 0 709.6 432a16 16 0 0 1 0-32 275.84 275.84 0 0 1 275.52 275.36 281.92 281.92 0 0 1-3.36 43.04 16 16 0 0 1-15.84 13.6zM314.4 432a154.4 154.4 0 0 1-29.76-306.08 16 16 0 0 1 6.08 32A122.4 122.4 0 0 0 314.4 400a16 16 0 0 1 0 32z" p-id="3469"></path><path d="M131.52 732H58.08a16 16 0 0 1-16-13.6 281.92 281.92 0 0 1-3.36-43.04A275.84 275.84 0 0 1 314.4 400a16 16 0 0 1 0 32A243.36 243.36 0 0 0 72.16 700h59.36a16 16 0 0 1 0 32zM512 437.28A189.28 189.28 0 1 1 701.28 248 189.6 189.6 0 0 1 512 437.28z m0-346.56a157.28 157.28 0 1 0 157.28 157.28A157.44 157.44 0 0 0 512 90.72z" p-id="3470"></path><path d="M833.12 823.52H190.88a16 16 0 0 1-16-13.6 347.84 347.84 0 0 1-4.16-53.28 341.12 341.12 0 0 1 682.24 0 347.84 347.84 0 0 1-4.16 53.28 16 16 0 0 1-15.68 13.6z m-628.32-32h614.4a309.12 309.12 0 1 0-614.24 0z" p-id="3471"></path></svg>