<svg t="1574778497083" class="icon" viewBox="0 0 1024 1024" version="1.1" xmlns="http://www.w3.org/2000/svg" p-id="1464" width="24" height="24"><path d="M665.494389 995.473079h-0.012069c-18.623668 0-36.728336-7.700519-48.417916-20.603112-15.938142-17.471004-66.419991-62.895615-107.740877-62.895615-41.031212 0-92.291561 45.684111-107.016691 61.694672-11.665441 12.685337-29.643376 20.253088-48.092032 20.253088-8.786799 0-17.078736-1.683734-24.646487-5.014993l-1.321641-0.579349-125.604149-70.240076-1.249222-0.875058c-22.866195-16.004526-31.568505-47.313531-20.241018-72.816974 0.084488-0.199151 11.580952-26.728524 11.580952-50.922395 0-73.408392-59.721264-133.135691-133.135691-133.13569h-4.453748l-0.808675 0.012069c-21.025554 0-38.146535-18.684017-43.620179-47.597171-0.434512-2.311363-10.717963-57.150401-10.717963-100.354172 0-43.203772 10.277416-98.04281 10.711928-100.354173 5.540028-29.281282 23.035172-48.085997 44.434889-47.579066h4.453748c73.414427 0 133.135691-59.727298 133.135691-133.141726 0-24.181801-11.490429-50.705139-11.611127-50.970674-11.315417-25.485337-2.558793-56.788307 20.403961-72.744555l1.303536-0.899198 132.556341-72.804903 1.38199-0.585385c7.459123-3.180387 15.636398-4.797737 24.296464-4.797737 18.400377 0 36.420556 7.410844 48.194625 19.818577 15.690712 16.426968 65.279397 59.147949 105.417444 59.147949 39.75785 0 89.038755-41.876096 104.681188-58.01339 11.70165-12.154267 29.589062-19.432343 47.820463-19.432344 8.835078 0 17.163225 1.671664 24.743045 4.966714l1.345781 0.585385 128.030174 71.127204 1.261292 0.881093c22.902405 15.986421 31.622819 47.295427 20.289297 72.823009-0.090523 0.193116-11.580952 26.722489-11.580952 50.91636 0 73.414427 59.721264 133.141726 133.135691 133.141725h4.453748c21.369543-0.476756 38.882791 18.297784 44.422819 47.579067 0.434512 2.311363 10.717963 57.150401 10.717964 100.360207 0 43.203772-10.283451 98.048845-10.717964 100.354173-5.540028 29.281282-23.053277 48.019613-44.428854 47.585101h-4.447713c-73.408392 0-133.135691 59.721264-133.135691 133.135691 0 24.187836 11.490429 50.705139 11.605092 50.970674 11.309382 25.467232 2.576898 56.770203-20.349646 72.750589l-1.285432 0.887129-130.18463 71.960019-1.35785 0.585384c-7.453088 3.198491-15.594154 4.821876-24.199906 4.821877z m-3.958887-61.332579c0.585384 0.380198 2.226874 1.031966 3.952853 1.031966l0.193116-0.006035 121.633192-67.228666c-2.932956-6.82546-16.36662-39.920792-16.36662-74.452428 0-103.256954 81.338237-187.89024 183.303725-193.182838 1.466478-8.104856 9.432532-53.686374 9.432532-87.892127 0-34.199717-7.966054-79.769165-9.432532-87.892126-101.965488-5.298633-183.303725-89.919849-183.303725-193.182838 0-34.57388 13.469873-67.723527 16.384725-74.488638l-119.659784-66.480339c-0.132768-0.006035-0.307779-0.018105-0.49486-0.018105-2.039793 0-3.946818 0.742291-4.580481 1.170769-2.009618 2.063932-19.35389 19.649599-44.265913 37.180952-36.879208 25.943989-71.760868 39.100047-103.655257 39.100047-32.214239 0-67.373503-13.415559-104.488071-39.872513-25.062895-17.863272-42.491655-35.792928-44.507308-37.893069-0.633663-0.434512-2.564828-1.200943-4.622725-1.200943l-0.428477 0.01207-123.93852 68.07355c2.969165 6.909948 16.348515 39.950967 16.348515 74.416219 0 103.262989-81.338237 187.884206-183.303725 193.182838-1.472513 8.110891-9.432532 53.686374-9.432532 87.892126 0 34.199717 7.966054 79.769165 9.438567 87.898162 101.965488 5.292598 183.303725 89.913814 183.303725 193.176803 0 34.646299-13.518152 67.856294-16.396794 74.536917l117.306176 65.59321 0.2595 0.006035c1.713909 0 3.337294-0.627628 3.916643-1.001791 2.190665-2.359642 19.715983-20.898821 44.947855-39.389722 37.615464-27.567374 73.366148-41.550212 106.244225-41.550212 33.191891 0 69.214144 14.242339 107.052899 42.340782 25.376709 18.840924 42.968411 37.736162 45.159076 40.119944z" fill="" p-id="1465"></path><path d="M509.758039 689.045545c-97.765205 0-177.305045-79.53984-177.305045-177.305045s79.53984-177.305045 177.305045-177.305045c97.77124 0 177.305045 79.53984 177.305044 177.305045s-79.533805 177.305045-177.305044 177.305045z m0-294.303442c-64.512966 0-116.998397 52.485431-116.998397 116.998397 0 64.506931 52.485431 116.998397 116.998397 116.998397s116.998397-52.485431 116.998397-116.998397c0-64.512966-52.479397-116.998397-116.998397-116.998397z" fill="" p-id="1466"></path></svg>