<svg t="1574839443126" class="icon" viewBox="0 0 1024 1024" version="1.1" xmlns="http://www.w3.org/2000/svg" p-id="1798" width="60" height="60"><path d="M991.232 514.048c0 264.704-214.528 479.232-479.232 479.232S32.768 778.752 32.768 514.048 247.296 34.816 512 34.816s479.232 214.528 479.232 479.232z" fill="#F2F2F2" p-id="1799"></path><path d="M512 34.816c-264.704 0-479.232 214.528-479.232 479.232L512 34.816z" fill="#F2F2F2" p-id="1800"></path><path d="M594.944 697.856c-19.968-28.672-31.232-56.32-30.72-92.16 0-7.68-6.656-11.264-12.288-10.24-0.512-1.024-1.536-1.536-2.56-2.048-29.696-18.944-68.096-14.336-99.84-2.56-2.56 1.024-4.096 3.072-5.12 5.632-3.584 0.512-7.168 4.096-5.632 9.216 9.728 41.472-5.12 69.12-24.576 104.448-10.24 18.944-13.824 38.912-7.68 59.904 13.824 47.616 63.488 69.632 110.08 67.072 45.056-2.56 90.624-25.088 97.28-74.24 3.584-25.088-5.12-45.056-18.944-65.024z" fill="#F1E1D4" p-id="1801"></path><path d="M678.912 410.112c2.56-22.528 3.072-44.544 0.512-65.024-13.824-107.008-156.16-95.232-234.496-94.72-47.104 0.512-75.264 23.552-88.064 68.096-8.704 30.72-12.288 62.976-11.776 95.744-7.68-1.536-15.36 1.536-20.992 7.168-8.192 8.704-8.704 22.528-7.168 33.792 1.536 11.264 5.632 23.552 15.872 29.696 5.632 3.072 11.776 4.096 18.432 3.072l1.024 5.12c0 1.024 0.512 2.048 1.024 2.56 6.144 30.72 17.408 59.392 36.352 84.992 49.152 67.072 140.288 85.504 205.312 30.72 34.816-29.184 55.296-70.656 66.56-113.664l2.56-10.752c1.024 0.512 2.56 0.512 3.584 0.512 33.792-2.048 39.936-68.608 11.264-77.312z" fill="#EFCDB8" p-id="1802"></path><path d="M693.76 416.768v-1.024c3.072-41.984 5.12-86.528-12.288-125.952-15.36-34.816-44.544-55.296-79.36-68.608-43.008-16.384-92.672-27.136-138.752-22.016-30.72 3.072-67.584 17.408-74.24 50.688-75.776-5.12-65.024 102.4-63.488 157.184-0.512 2.56-1.024 4.608-1.024 7.168 0 1.536 0.512 2.56 1.536 3.584v2.56l-0.512 0.512c-0.512 1.024 1.024 2.048 1.536 1.536 8.192-7.68 18.944-2.56 23.552 6.144 4.096 8.704 1.536 17.408 2.048 26.624 0 1.024 1.024 1.536 1.536 1.536 0.512 0.512 1.024 1.024 2.048 1.024 2.56-0.512 4.608-1.024 7.168-1.024 2.048 0 4.096 0 6.144-1.024 0.512-0.512 1.024-1.024 1.024-1.536 0.512 0.512 1.536 0 1.536-1.024 1.536-23.552 19.968-34.304 33.28-50.688 7.168-9.216 13.312-18.944 18.432-29.696 4.608-10.24 7.68-20.48 9.728-31.232 10.24 20.992 40.448 34.304 61.44 41.984 22.528 8.704 46.592 13.312 71.168 13.824 22.016 0.512 46.592 1.024 65.536 11.264l0.512 0.512 2.048 1.024c8.192 5.12 15.36 12.288 19.968 22.016 0.512 2.56 0.512 5.632 1.024 8.192 0 1.536 0 3.072 0.512 4.608-0.512 1.024-0.512 2.048 0.512 2.56h0.512s0 0.512 0.512 0.512c0.512 0.512 1.536 0.512 2.048 0 3.072 1.024 6.656 1.536 9.216 0.512l0.512-0.512c1.024 0.512 2.56 0.512 2.56-1.024 0-7.68 0-15.36 2.56-22.528 1.536-3.584 3.584-7.168 7.168-8.192 4.608-1.024 7.68 2.048 9.216 5.632 0.512 0.512 1.536 0.512 1.536 0v-1.024l1.024 1.024c2.048 1.536 4.608-2.048 2.048-3.584l-1.536-1.536z" fill="#040000" p-id="1803"></path><path d="M607.232 716.288v-1.536c-1.024-4.608-5.12-9.216-7.68-12.8-3.072-4.096-6.144-7.68-10.24-11.264-0.512-0.512-1.536-0.512-2.048-0.512-1.024-2.56-4.096-4.096-6.656-1.536-9.728 11.264-22.016 17.92-35.84 22.528-1.024-1.536-2.56-2.56-4.608-1.536-10.752 4.608-22.528 6.656-34.304 6.656-9.216 0-18.432-3.072-28.16-2.048h-0.512c-7.68-1.024-15.36-3.072-22.528-5.632-10.24-4.096-17.92-11.776-27.648-16.896 0.512-3.584-4.096-5.632-6.656-2.56-43.52 57.856-55.808 137.216-34.816 206.336 19.456 65.024 250.368 48.128 259.584-15.36 8.704-57.856-3.584-116.736-37.888-163.84z" fill="#F5F4F4" p-id="1804"></path><path d="M475.136 710.656c-11.264-1.536-42.496-9.728-49.152-23.552 0-0.512-0.512-1.024-0.512-1.536 0-0.512-0.512-1.024-0.512-1.024-0.512-1.536-2.048-2.048-3.584-1.536-1.024 0-2.56 0.512-3.072 1.536-14.336 17.408-25.088 27.136-11.776 49.152 12.288 19.968 29.184 36.352 48.64 50.176 3.072 2.048 6.656-0.512 6.656-4.096 0-22.016 5.632-44.032 16.896-62.976 1.536-3.072-0.512-6.144-3.584-6.144z m116.736-26.112c-0.512-0.512-0.512-0.512-1.024-0.512-1.024-2.56-4.608-4.608-7.168-2.048-12.288 11.264-26.624 19.968-43.008 24.576-2.56 0.512-3.072 3.072-2.048 4.608 0 0.512 0 1.536 0.512 2.048 10.24 16.896 15.872 33.792 12.288 53.76-0.512 3.072 2.048 6.656 5.632 5.632 29.696-11.776 68.096-59.904 34.816-88.064z" fill="#EBEAEA" p-id="1805"></path><path d="M568.32 947.712c-13.824-64-24.064-130.048-43.008-192.512 1.024 0 2.048-1.024 2.56-2.048 4.096-11.776 9.216-26.624 7.68-39.424 2.048-2.048 0.512-5.632-3.072-5.632h-1.536c-2.56 0.512-4.608 1.024-7.168 1.536-4.608 0.512-9.216 0.512-13.824 0.512-4.608 0-9.728-0.512-14.336-1.536-1.024-0.512-2.048 0-3.072 1.024h-5.632c-1.024 0-1.536 0.512-1.536 1.536-0.512 0.512-1.024 1.536-1.024 2.56 1.536 7.168 4.096 13.312 6.144 19.968 2.048 6.144 3.584 12.288 7.168 17.92 0 0.512 0.512 0.512 0.512 0.512 0 0.512 0.512 1.024 1.024 1.536l0.512 0.512s0 0.512-0.512 0.512c-13.312 61.952-16.896 127.488-24.064 190.464 0 1.536 0.512 2.56 2.048 3.072 6.144 44.544 77.824 49.152 88.576 4.608v-0.512c2.048-1.024 2.56-3.072 2.56-4.608z" fill="#565757" p-id="1806"></path><path d="M249.344 914.944s244.224 177.152 528.384-2.048c-8.192-29.696-18.432-58.368-30.208-86.528-11.264-26.112-23.552-54.272-47.104-71.68-26.112-19.456-61.44-30.72-91.648-40.96-1.024-0.512-2.048 0-2.56 0.512-1.024-0.512-2.048 0-2.048 1.024-9.216 27.136-29.696 48.64-46.592 71.168-16.384 22.016-32.768 43.52-49.152 65.536-37.376-41.472-80.384-82.432-107.52-131.072 0-0.512-0.512-0.512-0.512-1.024l-0.512-1.024c-0.512-1.024-1.536-0.512-1.536 0.512h-1.024c-54.272 24.576-109.568 54.784-130.048 113.664-9.216 26.624-13.312 54.272-17.92 81.92z" fill="#3C3C3C" p-id="1807"></path><path d="M580.096 879.616c-20.992 36.864-40.448 75.776-60.416 113.152h6.144c22.528-34.816 43.52-73.216 58.88-111.616v-1.024c0.512-0.512 0.512-1.024 0.512-1.536 0.512-22.016-1.536-45.056-3.584-66.56 14.848-2.048 29.184-7.168 43.008-12.288 1.024-0.512 1.536-1.536 1.536-2.56v-0.512c2.56-26.624-9.216-56.832-15.872-82.432-1.024-3.072-5.632-1.536-4.608 1.536 7.68 25.6 8.704 54.784 17.92 79.872h-0.512c-14.336 5.12-29.184 8.192-44.032 12.8-1.536-0.512-3.584 0-3.584 2.56 1.024 22.528 2.048 45.568 5.12 67.584 0 0-0.512 0.512-0.512 1.024z m-62.464 113.152c-1.536-47.104-4.096-94.208-7.168-140.8 0-2.56-3.584-2.56-3.584 0 0.512 46.592 1.024 93.696 2.56 140.8h8.192z m-139.776-198.144c13.824 7.68 34.304 9.216 49.664 9.728-2.56 22.528-3.584 45.056-3.584 67.584 0 1.536 1.024 2.048 2.048 2.048 24.576 39.936 51.2 78.336 75.264 118.272h7.168c-22.528-42.496-48.64-86.016-79.872-121.856 4.608-21.504 5.632-47.616 2.048-69.12 0-1.024-0.512-1.024-1.536-1.024-0.512-1.024-1.024-1.536-2.048-1.536-9.216-1.024-18.432-2.048-27.648-4.096-6.144-1.536-12.8-3.584-18.944-4.096 5.12-13.312 8.704-27.648 12.8-41.472 2.56-8.192 9.216-20.48 6.144-28.672 0-1.024-1.024-1.536-2.048-1.024-0.512 0-1.024 1.024-1.024 1.536-1.024 11.264-7.168 24.064-10.24 34.816-3.584 11.776-7.68 24.064-10.24 36.352 0 1.536 1.024 2.56 2.048 2.56z" fill="#1C1D1A" p-id="1808"></path></svg>