<svg t="1574782485904" class="icon" viewBox="0 0 1024 1024" version="1.1" xmlns="http://www.w3.org/2000/svg" p-id="2128" width="24" height="24"><path d="M513.024 848.554667c-185.685333 0-336.554667-150.869333-336.554667-336.554667 0-185.685333 150.869333-336.554667 336.554667-336.554667s336.554667 150.869333 336.554667 336.554667c0 18.773333 15.36 34.133333 34.133333 34.133333s34.133333-15.36 34.133333-34.133333c0-223.232-181.589333-404.821333-404.821333-404.821333C289.792 107.178667 108.202667 288.768 108.202667 512c0 223.232 181.589333 404.821333 404.821333 404.821333 18.773333 0 34.133333-15.36 34.133333-34.133333s-15.36-34.133333-34.133333-34.133333z" p-id="2129"></path><path d="M633.514667 510.293333a33.9968 33.9968 0 1 0 48.128-48.128L537.258667 317.44c-6.485333-6.485333-15.018667-9.898667-24.234667-9.898667s-17.749333 3.754667-24.234667 9.898667l-170.325333 170.325333c-6.485333 6.485333-9.898667 15.018667-9.898667 24.234667s3.754667 17.749333 9.898667 24.234667l144.384 144.384c6.826667 6.826667 15.36 9.898667 24.234667 9.898666s17.408-3.413333 24.234666-9.898666a33.9968 33.9968 0 0 0 0-48.128L390.826667 512l122.197333-122.197333 120.490667 120.490666zM887.466667 703.829333h-107.52v-107.52c0-18.773333-15.36-34.133333-34.133334-34.133333s-34.133333 15.36-34.133333 34.133333v107.52h-107.178667c-18.773333 0-34.133333 15.36-34.133333 34.133334s15.36 34.133333 34.133333 34.133333h107.178667v107.178667c0 18.773333 15.36 34.133333 34.133333 34.133333s34.133333-15.36 34.133334-34.133333v-107.178667H887.466667c18.773333 0 34.133333-15.36 34.133333-34.133333s-15.018667-34.133333-34.133333-34.133334z" p-id="2130"></path></svg>