<svg t="1574782575169" class="icon" viewBox="0 0 1332 1024" version="1.1" xmlns="http://www.w3.org/2000/svg" p-id="3007" width="24" height="24"><path d="M520.051938 752.016589 520.051938 665.111274 591.7947 593.31553 520.051938 521.519786 520.051938 434.615677 635.414732 549.665395 635.464102 549.617229 679.184079 593.31553 635.464102 637.018649 635.414732 636.968075ZM307.003149 557.38033l310.982837 0 0 71.87281-310.982837 0 0-71.87281ZM1262.749674 470.844688 1026.067196 470.844688c-37.690839 0-68.247139 30.563524-68.247139 68.266405l0 116.436889c0 37.70288 30.555095 68.266405 68.247139 68.266405l236.682478 0c37.690839 0 68.245935-30.563524 68.245935-68.266405l0-116.436889C1330.995608 501.408212 1300.440513 470.844688 1262.749674 470.844688zM1293.377018 628.979799c0 30.101133-24.394706 54.503065-54.487412 54.503065L1049.926059 683.482865c-30.092705 0-54.487412-24.401931-54.487412-54.503065l0-68.755286c0-30.101133 24.395911-54.503065 54.487412-54.503065l188.963547 0c30.092705 0 54.487412 24.401931 54.487412 54.503065L1293.377018 628.979799zM1037.55832 593.316734a29.991 30 0 1 0 72.226827 0 29.991 30 0 1 0-72.226827 0ZM957.810424 0 411.332393 175.691498 411.332393 220.094223 452.931875 220.094223 922.285836 69.197206 970.771805 220.094223 1028.529665 220.094223ZM508.032196 891.933036c-31.452181 0-56.951085-25.506129-56.951085-56.967943L451.08111 787.700123l-26.900525 0 0 62.873055c0 37.70288 30.556299 68.267609 68.24473 68.267609l130.780625 0 0-26.90775L508.032196 891.933036zM1206.005701 859.765595c0 65.142861-41.855965 112.507774-106.977152 112.507774l-622.086088 1.243879c-65.121186 0-112.437935-48.510052-112.437935-113.651709l-0.170988-131.717447-0.349201-0.350405-0.018062-44.421991-56.965535 0 0 119.273847 0 84.81372c0 75.404557 61.112599 136.531605 136.496686 136.531605l682.464161 0c75.384086 0 136.490665-61.127048 136.490665-136.531605L1262.452251 723.815591l-55.974526-0.001204L1206.005701 859.765595zM1125.961586 170.66541 443.497426 170.66541c-75.384086 0-136.496686 61.128253-136.496686 136.532809l0 204.085159 56.894491 0-0.073453-182.844099c0-65.142861 44.642349-108.62803 109.769556-108.62803l628.034548 0c65.121186 0 103.815076 46.458195 103.815076 111.601056l1.034358 139.431179 55.974526 0L1262.449843 307.199424C1262.451047 231.794867 1201.344468 170.66541 1125.961586 170.66541z" p-id="3008"></path></svg>