<svg t="1574782652021" class="icon" viewBox="0 0 1024 1024" version="1.1" xmlns="http://www.w3.org/2000/svg" p-id="3855" width="24" height="24"><path d="M901.0176 205.312a25.6 25.6 0 0 0-30.1056 20.0704l-41.1648 205.7728c-3.2768 16.4352-21.4528 32.6656-38.144 34.0992l-522.752 44.8-55.9616-335.7696A87.9616 87.9616 0 0 0 128 102.4h-51.2a25.6 25.6 0 0 0 0 51.2h51.2c15.7184 0 31.7952 13.6192 34.3552 29.1328l85.5552 513.3824A87.9616 87.9616 0 0 0 332.8 768h512a25.6 25.6 0 0 0 0-51.2h-512a37.0688 37.0688 0 0 1-34.3552-29.1328l-21.1456-126.9248 518.7072-44.4416c39.3216-3.3792 76.2368-36.352 83.968-75.0592l41.1648-205.7728a25.6 25.6 0 0 0-20.0704-30.1056zM409.6 1024c-56.4736 0-102.4-45.9264-102.4-102.4s45.9264-102.4 102.4-102.4 102.4 45.9264 102.4 102.4-45.9264 102.4-102.4 102.4z m0-153.6c-28.2112 0-51.2 22.9888-51.2 51.2s22.9888 51.2 51.2 51.2 51.2-22.9888 51.2-51.2-22.9888-51.2-51.2-51.2zM768 1024c-56.4736 0-102.4-45.9264-102.4-102.4s45.9264-102.4 102.4-102.4 102.4 45.9264 102.4 102.4-45.9264 102.4-102.4 102.4z m0-153.6c-28.2112 0-51.2 22.9888-51.2 51.2s22.9888 51.2 51.2 51.2 51.2-22.9888 51.2-51.2-22.9888-51.2-51.2-51.2z" p-id="3856"></path><path d="M555.7248 237.8752a25.6 25.6 0 0 0-36.1984 0L460.8512 296.5504V76.7488a25.6 25.6 0 0 0-51.2 0v219.8016L350.976 237.8752a25.6 25.6 0 0 0-36.1984 36.1984l102.4 102.4a25.4976 25.4976 0 0 0 36.2496 0l102.4-102.4a25.6 25.6 0 0 0 0-36.1984zM811.7248 135.4752l-102.4-102.4a25.6 25.6 0 0 0-36.1984 0l-102.4 102.4a25.6 25.6 0 0 0 36.1984 36.1984L665.6 112.9984V332.8a25.6 25.6 0 0 0 51.2 0V112.9984l58.6752 58.6752a25.4976 25.4976 0 0 0 36.2496 0 25.6 25.6 0 0 0 0-36.1984z" p-id="3857"></path></svg>