<svg t="1574835619578" class="icon" viewBox="0 0 1024 1024" version="1.1" xmlns="http://www.w3.org/2000/svg" p-id="4300" width="32" height="32"><path d="M605.994667 258.133333h-188.010667a22.442667 22.442667 0 1 1 0-44.8h188.010667a22.442667 22.442667 0 1 1 0 44.8z m114.005333-14.933333h-50.005333a46.485333 46.485333 0 0 1-48 44.8H401.984a46.485333 46.485333 0 0 1-48-44.8h-50.005333A46.613333 46.613333 0 0 0 256 288v477.866667a46.613333 46.613333 0 0 0 48 44.8h416A46.613333 46.613333 0 0 0 768 765.866667V288a46.613333 46.613333 0 0 0-48-44.8z m-205.333333 412.565333h-144.682667a22.442667 22.442667 0 1 1 0-44.8h144.682667a22.442667 22.442667 0 1 1 0 44.8z m139.328-125.056H369.984a22.442667 22.442667 0 1 1 0-44.8h284.010667a22.442667 22.442667 0 1 1 0 44.8z m0-115.818666H369.984a22.464 22.464 0 1 1 0-44.8h284.010667a22.464 22.464 0 1 1 0 44.8z" p-id="4301" fill="#333333"></path></svg>