<svg t="1574836558798" class="icon" viewBox="0 0 1024 1024" version="1.1" xmlns="http://www.w3.org/2000/svg" p-id="5200" width="30" height="30"><path d="M706.133333 608.917333a53.696 53.696 0 1 1-0.213333 0h0.213333z m-462.314666-63.594666h64v-51.626667h-39.637334a29.696 29.696 0 0 1 0-59.136H307.2v-38.4h-15.957333a27.733333 27.733333 0 0 1-29.205334-26.816 28.906667 28.906667 0 0 1 24.405334-32 24.597333 24.597333 0 0 1 4.8 0h15.957333v-17.557333a20.245333 20.245333 0 0 1 19.2-21.12h310.421333a20.181333 20.181333 0 0 1 19.434667 20.885333v63.125333h67.925333a36.821333 36.821333 0 0 1 29.056 20.885334l42.666667 83.541333A94.848 94.848 0 0 1 810.666667 529.6v104.896a20.437333 20.437333 0 0 1-19.434667 21.12h-19.2a69.888 69.888 0 0 0-78.72-62.741333 72.533333 72.533333 0 0 0-57.109333 62.741333h-135.445334a70.037333 70.037333 0 0 0-78.144-63.616 72.533333 72.533333 0 0 0-57.813333 63.616h-38.741333a20.437333 20.437333 0 0 1-19.434667-21.12v-30.272h-64A27.733333 27.733333 0 0 1 213.333333 577.408a28.906667 28.906667 0 0 1 24.405334-32 25.322667 25.322667 0 0 1 4.8 0h1.28z m431.850666-15.722667h103.168a40.32 40.32 0 0 0-8.533333-17.6L729.6 429.845333a15.872 15.872 0 0 0-7.466667-4.928h-47.509333zM434.133333 608.917333A58.453333 58.453333 0 0 1 432.405333 725.333333a58.474667 58.474667 0 0 1 1.28-116.394666h0.426667z" p-id="5201"></path></svg>