<svg t="1574836788521" class="icon" viewBox="0 0 1024 1024" version="1.1" xmlns="http://www.w3.org/2000/svg" p-id="6901" width="32" height="32"><path d="M704.4 544.6l-24.6-71.8c-0.8-2.2-2-4.3-3.6-6-1.1 16.6-14.5 30.1-31.5 31-4.2 0.2-8.3 0.3-12.3 0.3h-0.4c-11.3 0-22-0.8-32.2-2.3 0 2.1 0.3 4.2 1.1 6.3 3.2 8.6 12.8 12.9 21.4 9.7l31.6-11.9 75 218.7c13-14.2 29.4-25 48.1-31.3 12-4.1 24.5-6.2 37.1-6.2 40.1 0 76.6 20.7 97.5 53.5 12.4-0.6 15.6-7.9-4.4-33.9-32.2-42-77-50.1-108.5-49.7-2-5.3-4-10.9-6.2-16.8-19.2-53.4-62.6-78.8-88.1-89.6zM553.7 215.3v0.7c0.9 16.1 4.5 27.3 4.6 38.4 0 5.7-1.1 11.4-4.2 17.2-0.3 0.6-0.8 1.1-1.4 1.4-9.1 4.9-19 6.4-29 6.4-8.7 0-17.7-1.1-26.7-2.3-8.4-1.1-15.8-2.8-22.4-5.2 10.2 13.1 24.7 23 42.2 27.1 40.2 9.4 80.4-15.6 89.8-55.9 4.1-17.8 1.5-35.6-6.1-50.7-13.4 1.6-31.4 5-40.5 12-4.1 3.3-6.2 6.6-6.3 10.9zM435 371.9l-0.2-0.4c-3.7-8.1-4-17.1-0.9-25.4 3.1-8.3 9.3-14.9 17.4-18.6 4.4-2 9-3 13.7-3 13 0 24.9 7.6 30.3 19.5l0.2 0.3c0.2 0.5 0.7 1.3 1.2 2.4 1.2 2.2 3.1 5.7 5.8 9.9 3.2 5 7.8 11.5 13.7 18.7 6-31.4-6.6-66.1-33-72.6-28.4-7.1-69.5 8.3-86.2 57-22.6 67.1-27.5 110.7-18.9 184.5 8.3 42.8 33.4 54.9 58.7 57.8 0.1 0 0.2 0.1 0.3 0.1l126 19.6 47.2 119.7c6.4 16.3 22.1 26.3 38.7 26.3 5.1 0 10.2-0.9 15.2-2.9 21.3-8.4 31.8-32.6 23.4-53.9l-56-141.8c-5.4-13.7-17.7-23.5-32.3-25.8L495.1 527c-0.5-24.5 2.2-49.9 6-74.1-7.6-6-14.4-12.1-20.3-18-28-27.9-42.1-55.3-45.8-63z m197 119.6h0.4c4 0 7.9-0.1 11.9-0.3 14.7-0.8 26-13.2 25.2-27.9a26.6 26.6 0 0 0-27.9-25.2c-3.2 0.2-6.3 0.2-9.2 0.2-50.9-0.1-85.6-22.4-109.4-45.9-11.8-11.7-20.5-23.5-26-32.3-2.8-4.4-4.8-8-6.1-10.3-0.6-1.2-1.1-2.1-1.3-2.6-0.1-0.2-0.2-0.4-0.2-0.5-6.1-13.4-21.8-19.3-35.2-13.2-13.4 6.1-19.3 21.8-13.2 35.2 0.9 1.8 14.3 31.2 44.7 61.4 29.9 30.2 78.9 61.4 146.3 61.4z m-282.6 90.6v-207c0-9.8-7.9-17.7-17.7-17.7h-210c-9.8 0-17.7 7.9-17.7 17.7v207c0 9.8 7.9 17.7 17.7 17.7h209.9c9.9 0 17.8-7.9 17.8-17.7z m66.2 182.8c-17.6-51.8-73.8-79.5-125.6-62-51.8 17.6-79.5 73.8-62 125.6 17.6 51.8 73.8 79.5 125.6 62 51.8-17.6 79.6-73.8 62-125.6z m-81.2 68.9c-20.5 6.9-42.7-4-49.6-24.5-6.9-20.5 4-42.7 24.5-49.6 20.5-6.9 42.7 4 49.6 24.5 6.9 20.4-4.1 42.6-24.5 49.6zM762.7 539c28 0 28-101.4 0-101.4S712 460.3 712 488.3c0 28 22.7 50.7 50.7 50.7z m-63 240.3H487.8c-18.3-37-24.6-74.7-26.7-99.2 5.4-1.7 9.4-6.7 9.4-12.7v-36.6c0-7.3-6-13.3-13.3-13.3H186.3c-7.3 0-13.3 6-13.3 13.3v36.6c0 7.3 6 13.3 13.3 13.3h1.5c-14.4 35.4-36.7 96.8-36.7 138.5h57.3c-5-24.9-1.7-50.6 9.7-73.7 13.7-27.7 37.3-48.4 66.6-58.3 12-4.1 24.5-6.1 37.1-6.1 49.6 0 93.6 31.6 109.5 78.5 6.7 19.9 7.7 40.4 3.9 59.6h265.5c-2.7-13.2-3-26.7-1-39.9z m82.6-76.4c-51.8 17.6-79.5 73.8-62 125.6 17.6 51.8 73.8 79.5 125.6 62 51.8-17.6 79.5-73.8 62-125.6-17.6-51.8-73.8-79.5-125.6-62z m44.4 130.9c-20.5 6.9-42.7-4-49.6-24.5-6.9-20.5 4-42.7 24.5-49.6 20.5-6.9 42.7 4 49.6 24.5 6.9 20.4-4.1 42.6-24.5 49.6zM608.8 184.9c-1.4-10.1-4.6-19.7-9.3-28.5-12.7-23.8-36.3-41.4-65.1-45.1-3.8-0.5-7.6-0.7-11.3-0.7-42.7 0-79.9 31.7-85.6 75.2-0.5 3.8-0.7 7.5-0.7 11.3 0 5.1 0.5 10.2 1.3 15.1 3.3 18.4 8.8 31.6 18 40.9 9.2 9.2 22.3 14.9 41.8 17.5 9 1.2 17.6 2.3 25.8 2.3 9 0 17.3-1.3 24.9-5.2 2.2-4.4 3-8.6 3-13.2 0.1-9.5-3.6-21.1-4.6-38v-1.1c0-6.8 3.8-12.3 8.9-16.2 5.2-3.9 11.9-6.6 18.9-8.6 12.4-3.5 25.8-4.9 34-5.7z m0 0" p-id="6902"></path></svg>