<svg t="1574882615772" class="icon" viewBox="0 0 1024 1024" version="1.1" xmlns="http://www.w3.org/2000/svg" p-id="23902" width="24" height="24"><path d="M512 512m-512 0a512 512 0 1 0 1024 0 512 512 0 1 0-1024 0Z" fill="#1BA27A" p-id="23903"></path><path d="M752.2816 258.2016H267.4688v116.992h183.9104v172.0832h117.0432V375.1936h183.8592V258.2016z" fill="#FFFFFF" p-id="23904"></path><path d="M820.2752 520.7552c0-38.2976-138.24-69.3248-309.2992-69.3248s-309.248 31.0272-309.248 69.3248c0 33.7408 107.52 61.8496 249.6512 68.0448v246.9888H568.32V588.8c143.36-5.9392 251.9552-34.1504 251.9552-68.0448z m-309.2992 44.8512c-152.1152 0-275.456-24.1152-275.456-53.6064s123.2896-53.76 275.4048-53.76 275.456 24.064 275.456 53.76-123.2896 53.6064-275.4048 53.6064z" fill="#FFFFFF" p-id="23905"></path></svg>