<svg t="1574882700376" class="icon" viewBox="0 0 1024 1024" version="1.1" xmlns="http://www.w3.org/2000/svg" p-id="26438" width="24" height="24"><path d="M287.616 579.712c-11.52 8.448-19.84 20.608-23.552 34.432-5.12 23.552 2.048 48 19.072 65.152 20.608 18.816 46.976 29.952 74.88 31.744 43.648-0.128 86.144-14.72 120.704-41.472 21.888-16 41.088-35.2 57.088-57.088-48.512-25.088-109.056-52.736-173.824-50.048-25.856 0-51.2 6.016-74.368 17.28z m615.936 110.976c91.008-213.376-8.064-460.032-221.44-551.168s-460.032 8.064-551.168 221.44 8.064 460.032 221.44 551.168c180.224 76.928 389.76 18.944 504.832-139.776-87.808-43.52-175.488-87.168-263.168-131.2-38.4 44.928-88.448 78.336-144.512 96.896-33.536 11.392-69.248 14.208-104.192 7.936-27.904-4.864-53.76-18.176-73.856-38.016-8.832-9.088-16.384-19.584-22.272-30.848l0.128 2.048c-2.688-5.12-4.864-10.496-6.272-16-1.536-4.864-2.432-9.856-2.816-14.848-0.128-3.584-0.128-7.168 0-10.624-0.384-6.4 0-12.8 1.28-19.072 3.84-20.48 13.824-39.168 28.8-53.632 33.536-29.312 77.312-44.032 121.6-41.088 59.264 5.12 117.632 18.432 173.312 39.552 14.336-32 25.856-65.152 34.432-99.2h-250.88v-27.648h128.896v-54.272h-156.16v-26.88h156.16V300.8c0-7.424 1.28-13.568 13.568-13.568h61.056v68.096H721.92v27.264H552.448v54.272h135.552c-10.88 52.736-29.696 103.424-55.808 150.4 94.08 34.944 227.2 85.888 271.36 103.424z" fill="#00A0E9" p-id="26439"></path></svg>