<svg t="1574851907030" class="icon" viewBox="0 0 1024 1024" version="1.1" xmlns="http://www.w3.org/2000/svg" p-id="1902" width="200" height="200"><path d="M902.9888 37.2992H119.7568a82.4448 82.4448 0 0 0-82.4448 82.4448v783.2448a82.4704 82.4704 0 0 0 82.4448 82.4448h783.2448a82.4448 82.4448 0 0 0 82.4448-82.4448V119.7568a82.4704 82.4704 0 0 0-82.4576-82.4576zM330.4064 784.64c0 52.8512-21.8496 80.0128-65.4592 81.4592-22.2976 0.9472-48.5248 1.1904-78.5664 0.7424a2797.5168 2797.5168 0 0 0-9.4464-61.0944c29.1072 2.9312 51.4048 4.3648 66.944 4.3648 19.8656 0 29.8496-11.8784 29.8496-35.6608V583.1808c-30.2976 9.6896-64.0256 20.608-101.12 32.7296l-8-61.0944a7153.2544 7153.2544 0 0 0 109.12-30.5408V364.2496h-96.7552v-50.1632h96.7552V170.048h56.768v144.0384h90.2016v50.1632h-90.2784v142.9248a3967.872 3967.872 0 0 0 80.7552-25.1008c0.4992 24.7296 0.9472 44.1088 1.4464 58.1632a3883.2256 3883.2256 0 0 0-82.2016 24.7296V784.64z m558.7328-288.0256H756.736v381.1072h-58.2016V496.6144H518.8352c-1.2416 174.5792-34.9184 303.0784-101.12 385.4848a576.9728 576.9728 0 0 0-45.8368-45.0944c60.1472-70.784 90.2016-184.0256 90.2016-339.6736V221.6576c126.1056-0.4992 255.8336-10.6752 389.2352-30.5408l19.6608 56.7296c-144.5248 15.0528-261.888 23.5008-352.128 25.4336v169.472h370.304v53.8624z" fill="#EC808D" p-id="1903"></path></svg>