<?xml version="1.0" encoding="utf-8"?>
<svg version="1.1" xmlns:xlink="http://www.w3.org/1999/xlink" width="12px" height="12px" viewBox="38 440  12 12" xmlns="http://www.w3.org/2000/svg">
  <path d="M 44 440  C 47.36 440  50 442.64  50 446  C 50 449.36  47.36 452  44 452  C 40.64 452  38 449.36  38 446  C 38 442.64  40.64 440  44 440  Z " fill-rule="nonzero" fill="#ffffff" stroke="none" />
  <path d="M 44 440.5  C 47.08 440.5  49.5 442.92  49.5 446  C 49.5 449.08  47.08 451.5  44 451.5  C 40.92 451.5  38.5 449.08  38.5 446  C 38.5 442.92  40.92 440.5  44 440.5  Z " stroke-width="1" stroke="#d9001b" fill="none" />
  <path d="M 44 449  C 42.32 449  41 447.68  41 446  C 41 444.32  42.32 443  44 443  C 45.68 443  47 444.32  47 446  C 47 447.68  45.68 449  44 449  " fill-rule="nonzero" fill="#d9001b" stroke="none" />
</svg>