<?xml version="1.0" encoding="utf-8"?>
<svg version="1.1" xmlns:xlink="http://www.w3.org/1999/xlink" width="32px" height="17px" xmlns="http://www.w3.org/2000/svg">
  <g transform="matrix(1 0 0 1 -276 -210 )">
    <path d="M 282.874644530661 211.5  C 282.874644530661 211.5  282.015973184662 211.728084576281  282.015973184662 211.728084576281  C 282.015973184662 211.728084576281  277.724858460721 218.5  277.724858460721 218.5  C 277.724858460721 218.5  282.015973184662 225.271915423719  282.015973184662 225.271915423719  C 282.015973184662 225.271915423719  282.874644530661 225.5  282.874644530661 225.5  C 282.874644530661 225.5  306.5 225.5  306.5 225.5  C 306.5 225.5  306.5 211.5  306.5 211.5  C 306.5 211.5  282.874644530661 211.5  282.874644530661 211.5  Z " fill-rule="nonzero" fill="#ffffff" stroke="none" />
    <path d="M 282.849763020441 211  C 282.849763020441 211  281.710648789775 211.302577217521  281.710648789775 211.302577217521  C 281.710648789775 211.302577217521  277.149905640481 218.5  277.149905640481 218.5  C 277.149905640481 218.5  281.710648789775 225.697422782479  281.710648789775 225.697422782479  C 281.710648789775 225.697422782479  282.849763020441 226  282.849763020441 226  C 282.849763020441 226  307 226  307 226  C 307 226  307 211  307 211  C 307 211  282.849763020441 211  282.849763020441 211  Z " stroke-width="2" stroke="#333333" fill="none" />
  </g>
</svg>