<svg t="1574793088536" class="icon" viewBox="0 0 1024 1024" version="1.1" xmlns="http://www.w3.org/2000/svg" p-id="12228" width="200" height="200"><path d="M142.554 158.088h78.69v78.688h-78.69v-78.688zM362.886 16.452H0.919v361.967h141.636v62.948h78.69V378.42H362.88v-78.69h62.953v-62.953h-62.953V16.452h0.005zM284.198 299.73H79.607V95.14h204.592v204.59h-0.001zM142.554 803.333h78.69v78.684h-78.69v-78.684z m645.247-645.245h78.682v78.688H787.8v-78.688z m-283.279 355.62v85.034h78.688v-78.688h62.95v-78.688h-62.95v-62.948h-78.688v135.289z m0 287.776v80.54h78.688V740.38h62.95v-78.69H504.521v139.793z m78.688 80.538h62.95v62.949h-62.95v-62.949z m-157.376 62.949v78.688H583.21V944.97H425.834z m299.013-204.59H646.16v141.643h141.642v-78.69h-62.954v-62.953z m62.954 283.278h220.324V944.97H866.49v-62.949h-78.688v141.637z m220.324-503.604v-78.688H866.49v78.688H1008.125z m-78.688 283.278h78.688v78.684h-78.688v-78.684zM425.834 299.73h78.688v78.684h-78.688V299.73z m361.967 141.637V378.42h220.324V16.452H646.16V95.14H504.522v62.948h141.637v78.688H583.21v62.954h62.95v78.684h78.687v62.954h62.954zM724.847 95.14h204.59v204.59h-204.59V95.14z m0 503.603h62.954v62.949h-62.954v-62.949zM866.49 740.381h-78.688v62.952h141.636V661.692h78.688v-62.949H866.49v141.638zM425.834 158.088h78.688v78.688h-78.688v-78.688z m-204.59 361.967h62.954v78.688h-62.954v-78.688z m204.59-78.688H284.198v78.688h78.688v78.688h62.948V441.367z m-62.948 440.655V740.381h62.948v-78.69h-283.28V520.057H0.919v78.687h78.688v62.949H0.919v361.967h361.967V944.97h62.948v-62.949h-62.948z m-78.688 62.949H79.607V740.38h204.592v204.59h-0.001z m141.636-346.228h78.688v62.949h-78.688v-62.949z m220.325-78.688h78.688v78.688H646.16v-78.688z m141.642 0h78.682v78.688H787.8v-78.688z m0 0" p-id="12229"></path></svg>